<svg xmlns="http://www.w3.org/2000/svg"><defs><font id="icomoon" horiz-adv-x="1024"><font-face units-per-em="1024" ascent="960" descent="-64"/><glyph horiz-adv-x="512"/><glyph unicode="" glyph-name="add" d="M968.533 520.533h-384v384C584.533 921.6 558.933 960 512 960s-72.533-38.4-72.533-55.467v-384h-384C38.4 520.533 0 494.933 0 448s38.4-72.533 55.467-72.533h384v-384C439.467-25.6 465.067-64 512-64s72.533 38.4 72.533 55.467v384h384c17.067 0 55.467 25.6 55.467 72.533s-38.4 72.533-55.467 72.533z"/><glyph unicode="" glyph-name="alert" d="M1015.467 106.667l-448 746.667c-12.8 17.067-34.133 29.867-55.467 29.867s-42.667-12.8-55.467-29.867l-448-746.667c-12.8-21.333-12.8-42.667 0-64S42.666 12.8 64 12.8h900.267c21.333 0 42.667 12.8 55.467 29.867 8.533 21.333 8.533 46.933-4.267 64zM512 627.2c25.6 0 46.933-12.8 46.933-38.4 0-76.8-8.533-192-8.533-268.8 0-21.333-21.333-29.867-38.4-29.867-21.333 0-38.4 8.533-38.4 29.867 0 76.8-8.533 192-8.533 268.8 0 21.333 21.333 38.4 46.933 38.4zm0-490.667c-29.867 0-51.2 25.6-51.2 51.2 0 29.867 21.333 51.2 51.2 51.2 25.6 0 51.2-21.333 51.2-51.2 0-25.6-21.333-51.2-51.2-51.2z"/><glyph unicode="" glyph-name="arrow-down" d="M512 153.6c-17.067 0-38.4 8.533-51.2 21.333L21.333 614.4c-29.867 29.867-29.867 72.533 0 102.4 25.6 29.867 72.533 29.867 102.4 0L512 332.8l388.267 388.267c29.867 29.867 72.533 29.867 102.4 0s29.867-72.533 0-102.4L563.2 179.2c-12.8-17.067-34.133-21.333-51.2-25.6z"/><glyph unicode="" glyph-name="arrow-left" d="M217.6 448c0 17.067 8.533 38.4 21.333 51.2L678.4 938.667c29.867 29.867 72.533 29.867 102.4 0 29.867-25.6 29.867-72.533 0-102.4L396.8 448 785.067 59.733c29.867-29.867 29.867-72.533 0-102.4s-72.533-29.867-102.4 0L243.2 396.8c-17.067 12.8-21.333 34.133-25.6 51.2z"/><glyph unicode="" glyph-name="arrow-right" d="M780.8 396.8L341.333-42.667c-29.867-29.867-72.533-29.867-102.4 0s-29.867 72.533 0 102.4L627.2 448l-384 388.267c-29.867 29.867-29.867 76.8 0 102.4 29.867 29.867 72.533 29.867 102.4 0L785.067 499.2c12.8-12.8 21.333-34.133 21.333-51.2-4.267-17.067-8.533-38.4-25.6-51.2z"/><glyph unicode="" glyph-name="arrow-up" d="M563.2 716.8l439.467-439.467c29.867-29.867 29.867-72.533 0-102.4s-72.533-29.867-102.4 0L512 563.2l-388.267-384c-29.867-29.867-76.8-29.867-102.4 0-29.867 29.867-29.867 72.533 0 102.4L460.8 721.067c12.8 12.8 34.133 21.333 51.2 21.333 17.067-4.267 38.4-8.533 51.2-25.6z"/><glyph unicode="" glyph-name="bell" d="M392.533 59.733C392.533-8.534 448-64 512-64S631.467-8.533 631.467 55.467H392.534zm507.734 149.334L789.334 371.2v200.533c0 136.533-98.133 247.467-221.867 273.067v59.733C567.467 934.4 541.867 960 512 960s-55.467-25.6-55.467-55.467V844.8c-128-25.6-221.867-140.8-221.867-273.067V371.2L123.733 209.067c-12.8-17.067-12.8-38.4-4.267-55.467s29.867-29.867 46.933-29.867h682.667c21.333 0 38.4 12.8 46.933 29.867 17.067 17.067 17.067 38.4 4.267 55.467z"/><glyph unicode="" glyph-name="box" d="M0 149.333V614.4c0 21.333 21.333 38.4 42.667 29.867L469.334 460.8c12.8-4.267 21.333-17.067 21.333-29.867V-34.134c0-21.333-21.333-38.4-42.667-29.867L21.333 119.466C8.533 123.733 0 136.533 0 149.333zm977.067 443.734L584.534 422.4V-8.533l392.533 170.667v430.933zm12.8 55.466c17.067 0 34.133-12.8 34.133-29.867V153.599c0-12.8-8.533-25.6-21.333-29.867l-422.4-187.733c-4.267 0-8.533-4.267-12.8-4.267-17.067 0-29.867 12.8-34.133 29.867v465.067c0 12.8 8.533 25.6 21.333 29.867L977.067 640c4.267 8.533 8.533 8.533 12.8 8.533zM507.733 913.067L102.4 729.6 512 550.4l405.333 183.467-409.6 179.2zm0 46.933h12.8l448-196.267c25.6-12.8 25.6-46.933 0-59.733l-448-200.533c-4.267 0-8.533-4.267-12.8-4.267s-8.533 0-12.8 4.267L51.2 699.734c-11.404 5.318-19.167 16.686-19.167 29.867s7.762 24.549 18.965 29.782l.202.085 443.733 200.533h12.8z"/><glyph unicode="" glyph-name="calendar" d="M964.267 793.6c-12.8 12.8-29.867 21.333-51.2 21.333h-72.533V870.4c0 25.6-8.533 46.933-25.6 64s-38.4 25.6-64 25.6h-38.4c-25.6 0-46.933-8.533-64-25.6s-25.6-38.4-25.6-64v-55.467H401.067V870.4c0 25.6-8.533 46.933-25.6 64s-38.4 25.6-64 25.6h-38.4c-25.6 0-46.933-8.533-64-25.6s-25.6-42.667-25.6-64v-55.467h-72.533c-21.333 0-38.4-8.533-51.2-21.333-17.067-17.067-21.333-34.133-21.333-51.2V12.8c0-21.333 8.533-38.4 21.333-51.2 12.8-17.067 29.867-25.6 51.2-25.6h806.4c21.333 0 38.4 8.533 51.2 21.333s21.333 29.867 21.333 51.2V742.4c-4.267 17.067-8.533 34.133-25.6 51.2zM273.067 8.533H110.934v166.4h166.4V8.533zm0 200.534H110.934v183.467h166.4V209.067zm0 221.866H110.934v162.133h166.4V430.933zm-12.8 260.267C256 695.467 256 699.733 256 704v166.4c0 4.267 0 8.533 4.267 12.8s8.533 4.267 12.8 4.267h38.4c4.267 0 8.533 0 12.8-4.267s4.267-8.533 4.267-12.8V704c0-4.267 0-8.533-4.267-12.8s-8.533-4.267-12.8-4.267h-38.4c-4.267 0-8.533 0-12.8 4.267zM494.933 8.533H311.466v166.4h183.467V8.533zm0 200.534H311.466v183.467h183.467V209.067zm0 221.866H311.466v162.133h183.467V430.933zm217.6-422.4H529.066v166.4h183.467V8.533zm0 200.534H529.066v183.467h183.467V209.067zm0 221.866H529.066v162.133h183.467V430.933zm-12.8 260.267c-4.267 4.267-4.267 8.533-4.267 12.8v166.4c0 4.267 0 8.533 4.267 12.8s8.533 4.267 12.8 4.267h38.4c4.267 0 8.533 0 12.8-4.267S768 874.667 768 870.4V704c0-4.267 0-8.533-4.267-12.8s-8.533-4.267-12.8-4.267h-38.4c-4.267 0-8.533 0-12.8 4.267zM913.067 8.533h-166.4v166.4h166.4V8.533zm0 200.534h-166.4v183.467h166.4V209.067zm0 221.866h-166.4v162.133h166.4V430.933z"/><glyph unicode="" glyph-name="chat" d="M605.867 302.933c64 25.6 110.933 59.733 145.067 106.667s55.467 93.867 55.467 145.067-17.067 102.4-55.467 145.067c-34.133 46.933-85.333 81.067-145.067 106.667-64 25.6-128 38.4-200.533 38.4s-140.8-12.8-200.533-38.4c-68.267-21.333-115.2-55.467-149.333-102.4C17.068 661.334.001 610.134.001 558.934c0-46.933 12.8-89.6 42.667-128 25.6-38.4 64-72.533 110.933-102.4l-12.8-25.6c-4.267-8.533-8.533-17.067-12.8-21.333-4.267-8.533-8.533-12.8-12.8-17.067s-8.533-8.533-12.8-17.067c-12.8-8.533-17.067-12.8-17.067-12.8l-12.8-12.8v-21.333c0-4.267 4.267-8.533 8.533-12.8 4.267 4.267 8.533 4.267 12.8 4.267 17.067 4.267 34.133 4.267 51.2 8.533 59.733 17.067 110.933 38.4 157.867 72.533 34.133-4.267 68.267-8.533 102.4-8.533 68.267 0 136.533 12.8 200.533 38.4zM981.333 281.6c25.6 38.4 42.667 81.067 42.667 128s-12.8 89.6-42.667 132.267-68.267 72.533-115.2 102.4c8.533-29.867 12.8-55.467 12.8-85.333 0-51.2-12.8-98.133-38.4-145.067s-64-85.333-110.933-119.467c-42.667-29.867-93.867-55.467-149.333-72.533s-115.2-25.6-174.933-25.6c-12.8 0-29.867 0-51.2 4.267 76.8-51.2 166.4-76.8 268.8-76.8 34.133 0 68.267 4.267 102.4 8.533 46.933-34.133 98.133-59.733 157.867-72.533 12.8-4.267 29.867-8.533 51.2-8.533 4.267 0 8.533 0 12.8 4.267s4.267 8.533 8.533 12.8v21.333s0 4.267-4.267 4.267l-4.267 4.267s0 4.267-4.267 4.267c0 4.267-4.267 8.533-12.8 12.8-8.533 8.533-12.8 12.8-12.8 17.067-4.267 4.267-8.533 8.533-12.8 17.067s-8.533 12.8-12.8 21.333l-12.8 25.6c38.4 12.8 76.8 46.933 102.4 85.333z"/><glyph unicode="" glyph-name="checkmark" d="M1006.933 742.4L972.8 776.533c-8.533 8.533-25.6 17.067-38.4 17.067-17.067 0-29.867-4.267-38.4-17.067L426.667 307.2 128 597.333c-8.533 12.8-25.6 17.067-38.4 17.067-17.067 0-29.867-4.267-38.4-17.067l-34.133-29.867C4.267 554.666 0 541.866 0 524.799s4.267-29.867 17.067-38.4L384 119.466c8.533-8.533 25.6-17.067 38.4-17.067 17.067 0 29.867 4.267 38.4 17.067l34.133 34.133 512 507.733c21.333 25.6 21.333 59.733 0 81.067z"/><glyph unicode="" glyph-name="meter" d="M294.4 558.933c0 4.267 0 8.533-4.267 8.533L192 678.399c-4.267 4.267-4.267 4.267-8.533 4.267s-8.533 0-8.533-4.267c-46.933-38.4-85.333-85.333-110.933-136.533v-8.533c0-4.267 4.267-4.267 4.267-8.533l132.267-72.533h4.267c4.267 0 8.533 4.267 12.8 8.533 17.067 34.133 42.667 64 72.533 93.867 0 0 4.267 0 4.267 4.267zm42.667 42.667c4.267-4.267 8.533-8.533 12.8-8.533h4.267c34.133 17.067 72.533 29.867 110.933 34.133 8.533 0 12.8 8.533 8.533 12.8l-21.333 149.333c0 8.533-8.533 12.8-12.8 8.533-55.467 0-115.2-21.333-166.4-46.933-8.533-4.267-8.533-12.8-4.267-17.067l68.267-132.267zM174.933 401.067l-145.067 38.4h-8.533c-4.267 0-4.267-4.267-4.267-8.533-12.8-42.667-17.067-89.6-17.067-132.267v-25.6c0-8.533 4.267-12.8 12.8-12.8l149.333 8.533c4.267 0 4.267 0 8.533 4.267s4.267 4.267 4.267 8.533v17.067c0 29.867 4.267 59.733 12.8 89.6 0 4.267-4.267 8.533-12.8 12.8zm558.934 358.4C678.4 785.067 622.934 802.134 563.2 806.4c-4.267 0-8.533 0-8.533-4.267-4.267 0-4.267-4.267-4.267-8.533l-12.8-149.333c0-8.533 4.267-12.8 12.8-12.8 38.4-4.267 76.8-12.8 115.2-29.867h8.533c4.267 0 4.267 4.267 8.533 4.267l64 132.267c-4.267 8.533-4.267 17.067-12.8 21.333zm217.6-209.067v8.533c-29.867 51.2-68.267 98.133-115.2 136.533-4.267 0-4.267 4.267-8.533 4.267s-4.267 0-8.533-4.267l-93.867-119.467c0-4.267-4.267-4.267-4.267-8.533s0-4.267 4.267-8.533c29.867-25.6 55.467-55.467 76.8-89.6 4.267-4.267 8.533-4.267 12.8-4.267h4.267l128 76.8c4.267 0 4.267 4.267 4.267 8.533zm51.2-102.4c0 8.533-8.533 8.533-17.067 8.533l-140.8-42.667c-8.533 0-8.533-8.533-8.533-17.067 8.533-34.133 17.067-68.267 17.067-102.4v-17.067c0-4.267 0-8.533 4.267-8.533 4.267-4.267 4.267-4.267 8.533-4.267l149.333-8.533c8.533 0 12.8 4.267 12.8 12.8v25.6c-4.267 55.467-12.8 106.667-25.6 153.6zM512 324.267h-4.267L307.2 443.734c-4.267 4.267-12.8 4.267-17.067 0s-4.267-8.533-4.267-17.067l110.933-204.8v-12.8c.761-63.315 51.885-114.439 115.127-115.199l.073-.001c63.315.761 114.439 51.885 115.199 115.127l.001.073c-.761 63.315-51.885 114.439-115.127 115.199l-.073.001z"/><glyph unicode="" d="M0 153.6v460.8c0 21.333 21.333 38.4 42.667 29.867L469.334 460.8c12.8-4.267 21.333-17.067 21.333-29.867V-34.134c0-21.333-21.333-38.4-42.667-29.867L21.333 119.466C8.533 127.999 0 140.799 0 153.599z"/><glyph unicode="" glyph-name="clear" d="M1024 541.867l-371.2 371.2L0 256 268.8-12.8h605.867v59.733h-345.6L1024 541.866zM294.4 46.933L85.333 256l264.533 264.533 285.867-285.867L448 46.933H294.4z"/><glyph unicode="" glyph-name="close" d="M631.467 448L998.4 814.933c34.133 34.133 34.133 85.333 0 119.467s-85.333 34.133-119.467 0L512 567.467 145.067 934.4c-34.133 34.133-85.333 34.133-119.467 0s-34.133-85.333 0-119.467L392.533 448 25.6 81.067C-8.533 46.934-8.533-4.266 25.6-38.4 42.667-55.467 64-64 85.333-64S128-55.467 145.066-38.4l366.933 366.933L878.932-38.4c17.067-17.067 38.4-25.6 59.733-25.6s42.667 8.533 59.733 25.6c34.133 34.133 34.133 85.333 0 119.467L631.465 448z"/><glyph unicode="" glyph-name="delete" d="M759.467 657.067H268.8c-51.2 0-93.867-42.667-93.867-93.867l51.2-533.333C226.133-21.333 268.8-64 320-64h392.533c51.2 0 93.867 42.667 93.867 93.867L849.067 563.2c0 51.2-38.4 93.867-89.6 93.867zm-371.2-558.934c0-25.6-21.333-46.933-46.933-46.933s-46.933 21.333-46.933 46.933v418.133c0 25.6 21.333 46.933 46.933 46.933s46.933-21.333 46.933-46.933V98.133zm166.4 0c0-25.6-21.333-46.933-46.933-46.933s-46.933 21.333-46.933 46.933v418.133c0 25.6 21.333 46.933 46.933 46.933s46.933-21.333 46.933-46.933V98.133zm162.133 0c0-25.6-21.333-46.933-46.933-46.933s-46.933 21.333-46.933 46.933v418.133c0 25.6 21.333 46.933 46.933 46.933s46.933-21.333 46.933-46.933V98.133zm-469.333 601.6l563.2 145.067c29.867 8.533 51.2 38.4 42.667 72.533-8.533 29.867-38.4 51.2-72.533 42.667l-170.667-42.667c-17.067 25.6-46.933 34.133-76.8 29.867l-68.267-17.067c-29.867-12.8-51.2-38.4-51.2-68.267L217.6 814.933c-29.867-8.533-51.2-38.4-42.667-72.533 8.533-29.867 38.4-46.933 72.533-42.667z"/><glyph unicode="" glyph-name="document" d="M576 960H192c-34.133 0-64-29.867-64-64V0c0-34.133 29.867-64 64-64h640c34.133 0 64 29.867 64 64v640L576 960zM832 0H192v896h320V576h320V0z"/><glyph unicode="" glyph-name="download" d="M486.4 204.8c4.267-8.533 12.8-12.8 25.6-12.8 8.533 0 17.067 4.267 25.6 12.8l226.133 256c8.533 8.533 8.533 21.333 4.267 34.133S750.933 512 738.133 512h-128v413.867c0 17.067-12.8 34.133-34.133 34.133H448c-17.067 0-34.133-12.8-34.133-34.133V507.734h-128c-12.8 0-25.6-8.533-29.867-17.067-4.267-12.8-4.267-25.6 4.267-34.133L486.4 204.801zM866.133 256V64h-704v192h-128V0c0-34.133 29.867-64 64-64h832c34.133 0 64 29.867 64 64v256h-128z"/><glyph unicode="" d="M998.4 648.533c-4.267 0-12.8 0-21.333-4.267l-422.4-187.733c-12.8-4.267-21.333-17.067-21.333-29.867V-38.401c4.267-17.067 17.067-29.867 34.133-29.867 4.267 0 8.533 4.267 12.8 4.267l422.4 187.733c12.8 4.267 21.333 17.067 21.333 29.867v465.067c0 17.067-8.533 29.867-25.6 29.867zM977.067 166.4L584.534-4.267v430.933l392.533 170.667V166.4zm-8.534 597.333L520.533 960h-25.6L51.2 759.467c-8.533-4.267-12.8-8.533-17.067-17.067-8.533-17.067 0-34.133 17.067-42.667l443.733-196.267c4.267-4.267 8.533-4.267 12.8-4.267s8.533 4.267 12.8 4.267l448 200.533c25.6 12.8 25.6 46.933 0 59.733zM512 550.4L102.4 729.6l405.333 183.467 409.6-179.2L512 550.4z"/><glyph unicode="" glyph-name="edit" d="M635.733 789.333L844.8 580.266l-529.067-524.8-209.067 209.067 529.067 524.8zm366.934 51.2L908.8 934.4c-34.133 34.133-93.867 34.133-132.267 0l-89.6-89.6L896 635.733l102.4 102.4c34.133 29.867 34.133 72.533 4.267 102.4zM0-29.867C-4.267-46.934 12.8-64 29.867-59.734l230.4 55.467L51.2 204.8 0-29.867z"/><glyph unicode="" glyph-name="error" d="M512 960C230.4 960 0 729.6 0 448S230.4-64 512-64s512 230.4 512 512-230.4 512-512 512zm51.2-768H460.8v102.4h102.4V192zm0 204.8H460.8V704h102.4V396.8z"/><glyph unicode="" glyph-name="folder-closed" d="M0 93.867c0-34.133 29.867-64 64-64h896c34.133 0 64 29.867 64 64v448H0v-448zm960 640H473.6L366.933 844.8c-12.8 12.8-29.867 17.067-46.933 17.067H64c-34.133 0-64-25.6-64-64v-192h1024v64c0 38.4-29.867 64-64 64z"/><glyph unicode="" glyph-name="folder-opened" d="M132.267 563.2C140.8 588.8 166.4 605.867 192 605.867h704v64c0 34.133-29.867 64-64 64H409.6L302.933 844.8c-12.8 12.8-29.867 17.067-46.933 17.067H64c-34.133 0-64-25.6-64-64V166.4l132.267 396.8zM1024 477.867c0 34.133-29.867 64-64 64H256c-29.867 0-51.2-17.067-59.733-42.667l-128-384C64 110.933 64 102.4 64 93.867c0-34.133 29.867-64 64-64h704c29.867 0 51.2 17.067 59.733 42.667l128 384c4.267 8.533 4.267 17.067 4.267 21.333z"/><glyph unicode="" glyph-name="hand-pointer" d="M964.267 435.2V448c0 46.933-38.4 81.067-81.067 81.067-46.933 0-81.067-38.4-81.067-81.067v85.333c0 46.933-38.4 81.067-81.067 81.067s-81.067-34.133-81.067-81.067v85.333c0 42.667-42.667 81.067-85.333 81.067s-85.333-38.4-85.333-85.333v264.533c0 42.667-38.4 81.067-81.067 81.067s-81.067-38.4-81.067-81.067V349.866s-85.333 251.733-200.533 192c-42.667-21.333-59.733-72.533-38.4-110.933l153.6-307.2s93.867-183.467 256-183.467h217.6c149.333 0 268.8 123.733 268.8 273.067V435.2z"/><glyph unicode="" glyph-name="help" d="M512 960C226.133 960 0 733.867 0 448S226.133-64 512-64s512 226.133 512 512-226.133 512-512 512zm46.933-789.333c0-12.8-8.533-21.333-21.333-21.333h-46.933c-12.8 0-21.333 8.533-21.333 21.333V217.6c0 12.8 8.533 21.333 21.333 21.333H537.6c12.8 0 21.333-8.533 21.333-21.333v-46.933zm64 204.8c-34.133-29.867-55.467-46.933-64-72.533-4.267-12.8-12.8-17.067-21.333-17.067h-46.933c-12.8 0-25.6 12.8-21.333 25.6 8.533 68.267 59.733 106.667 98.133 136.533 42.667 34.133 64 55.467 64 93.867 0 64-51.2 115.2-115.2 115.2s-119.467-51.2-119.467-115.2v-12.8c4.267-12.8-4.267-21.333-17.067-25.6l-42.667-12.8c-12.8-4.267-29.867 4.267-29.867 17.067-4.267 12.8-4.267 21.333-4.267 34.133 0 115.2 93.867 209.067 209.067 209.067s209.067-93.867 209.067-209.067c0-85.333-55.467-132.267-98.133-166.4z"/><glyph unicode="" glyph-name="hidden" d="M503.467 593.067l149.333-128v8.533c0 68.267-64 123.733-140.8 123.733l-8.533-4.267zM512 674.133c128 0 234.667-93.867 234.667-204.8 0-25.6-4.267-51.2-17.067-76.8l136.533-119.467c64 46.933 115.2 102.4 149.333 170.667 8.533 17.067 8.533 34.133 0 51.2-85.333 166.4-277.333 281.6-503.467 281.6-64 0-128-8.533-187.733-29.867l102.4-89.6c25.6 12.8 55.467 17.067 85.333 17.067zM42.667 785.067L149.334 691.2l21.333-17.067C102.4 627.2 42.667 563.2 8.534 494.933c-8.533-17.067-8.533-34.133 0-51.2 85.333-166.4 277.333-281.6 503.467-281.6 72.533 0 140.8 12.8 204.8 34.133l21.333-17.067L874.667 59.732l59.733 51.2-832 725.333-59.733-51.2zm260.266-226.134l72.533-64c0-8.533-4.267-17.067-4.267-25.6 0-68.267 64-123.733 140.8-123.733 8.533 0 21.333 0 29.867 4.267l72.533-64c-29.867-12.8-68.267-21.333-102.4-21.333-128 0-234.667 93.867-234.667 204.8 0 29.867 8.533 64 25.6 89.6z"/><glyph unicode="" glyph-name="language" d="M264.533 686.933l-25.6-119.467h64l-25.6 119.467zM810.667 358.4c17.067 25.6 38.4 51.2 51.2 85.333h-102.4C776.534 409.6 793.6 384 810.667 358.4zM934.4 776.533H563.2L640 153.6c0-25.6-4.267-51.2-21.333-68.267L486.4-64h448c51.2 0 89.6 38.4 89.6 89.6v661.333c0 46.933-38.4 89.6-89.6 89.6zm0-328.533h-8.533c-17.067-55.467-42.667-98.133-72.533-132.267 21.333-21.333 46.933-38.4 68.267-55.467 12.8-8.533 17.067-29.867 4.267-42.667-8.533-12.8-29.867-17.067-42.667-4.267-25.6 21.333-51.2 38.4-72.533 59.733-25.6-21.333-46.933-38.4-72.533-59.733-12.8-8.533-29.867-8.533-42.667 4.267-8.533 12.8-8.533 29.867 4.267 42.667 21.333 17.067 46.933 34.133 68.267 55.467-29.867 34.133-51.2 76.8-68.267 132.267h-8.533c-17.067 0-29.867 12.8-29.867 29.867s12.8 29.867 29.867 29.867h89.6v29.867c0 17.067 12.8 29.867 29.867 29.867s29.867-12.8 29.867-29.867v-29.867h93.867c17.067 0 29.867-12.8 29.867-29.867S951.47 448 934.403 448zM580.267 145.067c0 4.267-89.6 733.867-89.6 733.867-8.533 46.933-46.933 81.067-89.6 81.067H89.6c-51.2 0-89.6-38.4-89.6-89.6v-665.6c0-51.2 38.4-89.6 89.6-89.6h473.6c8.533 12.8 17.067 17.067 17.067 29.867zm-213.334 243.2C349.866 384 332.8 396.8 332.8 413.867l-17.067 93.867H230.4l-17.067-93.867c-4.267-17.067-17.067-25.6-34.133-25.6-17.067 4.267-25.6 17.067-25.6 34.133l59.733 298.667c0 12.8 12.8 25.6 25.6 25.6h64c12.8 0 25.6-8.533 29.867-25.6L392.533 422.4c0-17.067-8.533-34.133-25.6-34.133zm-17.066-332.8l4.267-42.667c4.267-25.6 21.333-55.467 51.2-68.267 55.467 64 21.333 25.6 102.4 110.933H349.867z"/><glyph unicode="" glyph-name="leaf" d="M768 960s-85.333-81.067-174.933-115.2C-81.066 601.6 204.8 123.733 213.334 123.733c0 0 38.4 64 89.6 102.4 324.267 238.933 388.267 512 388.267 512s-72.533-328.533-362.667-537.6c-64-46.933-106.667-157.867-123.733-268.8 0 0 46.933 17.067 64 21.333 8.533 51.2 21.333 98.133 51.2 140.8 405.333-46.933 533.333 277.333 554.667 388.267C913.068 755.2 768.001 960 768.001 960z"/><glyph unicode="" glyph-name="mail" d="M98.133 601.6c12.8-8.533 51.2-34.133 115.2-81.067s115.2-81.067 149.333-102.4c4.267-4.267 12.8-8.533 25.6-17.067s21.333-17.067 29.867-21.333c8.533-4.267 17.067-12.8 29.867-17.067 12.8-8.533 21.333-12.8 34.133-17.067 8.533-4.267 21.333-4.267 29.867-4.267s17.067 0 29.867 4.267c8.533 4.267 21.333 8.533 34.133 17.067s21.333 12.8 29.867 17.067c8.533 4.267 17.067 12.8 29.867 21.333s21.333 12.8 25.6 17.067c34.133 25.6 123.733 85.333 268.8 187.733 29.867 21.333 51.2 42.667 68.267 68.267s29.867 55.467 29.867 85.333c0 25.6-8.533 46.933-25.6 64s-38.4 25.6-64 25.6H89.601c-29.867 0-51.2-8.533-68.267-29.867C8.534 802.132.001 776.532.001 746.666c0-25.6 8.533-51.2 29.867-76.8 21.333-29.867 46.933-51.2 68.267-68.267zm870.4-59.733C844.8 456.534 746.666 392.534 682.666 345.6c-21.333-17.067-38.4-29.867-51.2-38.4s-29.867-17.067-55.467-25.6c-21.333-8.533-42.667-12.8-64-12.8s-38.4 4.267-64 12.8c-21.333 8.533-38.4 17.067-55.467 25.6-12.8 8.533-29.867 21.333-51.2 38.4-51.2 34.133-145.067 102.4-281.6 196.267-25.6 12.8-42.667 29.867-59.733 46.933V136.533c0-25.6 8.533-46.933 25.6-64s38.4-25.6 64-25.6h840.533c25.6 0 46.933 8.533 64 25.6s25.6 38.4 25.6 64V588.8c-12.8-17.067-29.867-34.133-51.2-46.933z"/><glyph unicode="" glyph-name="menu" d="M59.733 755.2h904.533c34.133 0 59.733 25.6 59.733 59.733s-25.6 59.733-59.733 59.733H59.733C25.6 874.666 0 849.066 0 814.933S25.6 755.2 59.733 755.2zm904.534-247.467H59.734C25.601 507.733.001 482.133.001 448s25.6-59.733 59.733-59.733h904.533c34.133 0 59.733 25.6 59.733 59.733s-25.6 59.733-59.733 59.733zm0-366.933H59.734C25.601 140.8.001 115.2.001 81.067s25.6-59.733 59.733-59.733h904.533c34.133 0 59.733 25.6 59.733 59.733S998.4 140.8 964.267 140.8z"/><glyph unicode="" glyph-name="minus" d="M955.733 379.733H68.266C29.866 379.733-.001 409.6-.001 448s29.867 68.267 68.267 68.267h891.733c38.4 0 68.267-29.867 68.267-68.267-4.267-38.4-34.133-68.267-72.533-68.267z"/><glyph unicode="" glyph-name="more" d="M631.467 840.533c0-65.98-53.487-119.467-119.467-119.467s-119.467 53.487-119.467 119.467C392.533 906.513 446.02 960 512 960s119.467-53.487 119.467-119.467zm0-785.066C631.467-10.513 577.98-64 512-64S392.533-10.513 392.533 55.467c0 65.98 53.487 119.467 119.467 119.467s119.467-53.487 119.467-119.467zm0 392.533c0-65.98-53.487-119.467-119.467-119.467S392.533 382.02 392.533 448c0 65.98 53.487 119.467 119.467 119.467S631.467 513.98 631.467 448z"/><glyph unicode="" glyph-name="question" d="M512 960C226.133 960 0 733.867 0 448S226.133-64 512-64s512 226.133 512 512-226.133 512-512 512zm46.933-789.333c0-12.8-8.533-21.333-21.333-21.333h-46.933c-12.8 0-21.333 8.533-21.333 21.333V217.6c0 12.8 8.533 21.333 21.333 21.333H537.6c12.8 0 21.333-8.533 21.333-21.333v-46.933zm64 204.8c-34.133-29.867-55.467-46.933-64-72.533-4.267-12.8-12.8-17.067-21.333-17.067h-46.933c-12.8 0-25.6 12.8-21.333 25.6 8.533 68.267 59.733 106.667 98.133 136.533 42.667 34.133 64 55.467 64 93.867 0 64-51.2 115.2-115.2 115.2s-119.467-51.2-119.467-115.2v-12.8c4.267-12.8-4.267-21.333-17.067-25.6l-42.667-12.8c-12.8-4.267-29.867 4.267-29.867 17.067-4.267 12.8-4.267 21.333-4.267 34.133 0 115.2 93.867 209.067 209.067 209.067s209.067-93.867 209.067-209.067c0-85.333-55.467-132.267-98.133-166.4z"/><glyph unicode="" glyph-name="save" d="M832 960h-64V541.867H256V960H0V-64h1024v832L832 960zM896 0H128v448h768V0zM192 384h640v-64H192zm0-128h640v-64H192zm0-128h640V64H192zm384 768h128V605.867H576z"/><glyph unicode="" glyph-name="search" d="M1002.667 51.2L733.867 320c46.933 68.267 76.8 149.333 76.8 234.667 0 221.867-179.2 405.333-405.333 405.333S.001 776.533.001 550.4s183.467-405.333 405.333-405.333c85.333 0 166.4 29.867 234.667 76.8l268.8-268.8c25.6-25.6 68.267-25.6 93.867 0 29.867 29.867 29.867 68.267 0 98.133zm-597.334 192c-170.667 0-311.467 136.533-311.467 311.467 0 170.667 136.533 311.467 311.467 311.467S716.8 729.601 716.8 554.667 576 243.2 405.333 243.2z"/><glyph unicode="" glyph-name="sort" d="M512 960L204.8 550.4h614.4zm0-1024l307.2 409.6H204.8z"/><glyph unicode="" glyph-name="triangle-down" d="M0 704h1024L512 192 0 704z"/><glyph unicode="" glyph-name="triangle-left" d="M256 448l512 512V-64L256 448z"/><glyph unicode="" glyph-name="triangle-right" d="M281.6-64V960l512-512-512-512z"/><glyph unicode="" glyph-name="triangle-up" d="M512 746.667l512-512H0l512 512z"/><glyph unicode="" glyph-name="visible" d="M512 755.2c-196.267 0-371.2-106.667-503.467-281.6-12.8-12.8-12.8-34.133 0-46.933 132.267-174.933 307.2-281.6 503.467-281.6s371.2 106.667 503.467 281.6c12.8 12.8 12.8 34.133 0 46.933C883.2 644.267 708.267 755.2 512 755.2zm12.8-520.533c-128-8.533-238.933 98.133-230.4 230.4 8.533 102.4 98.133 192 204.8 196.267 128 8.533 238.933-98.133 230.4-230.4-8.533-102.4-98.133-192-204.8-196.267zm-4.267 98.133c-68.267-4.267-128 51.2-123.733 123.733 4.267 59.733 51.2 102.4 106.667 106.667 68.267 4.267 128-51.2 123.733-123.733C622.933 384 576 337.067 520.533 332.8z"/><glyph unicode="" d="M558.933 12.8l166.4 196.267-166.4 196.267c-55.467-51.2-85.333-123.733-85.333-196.267s29.867-140.8 85.333-196.267z"/><glyph unicode="" d="M72.533 870.4h550.4V725.333h-550.4V870.4z"/><glyph unicode="" d="M797.867-59.733C921.6-38.4 1015.467 68.267 1024 192H772.267l25.6-251.733z"/><glyph unicode="" d="M584.533-8.533C635.733-46.933 695.466-64 759.466-64l-25.6 230.4L584.533-8.533z"/><glyph unicode="" d="M546.133-25.6c-21.333 17.067-38.4 38.4-55.467 59.733v-25.6c0-21.333-17.067-38.4-38.4-38.4h-51.2c-21.333 0-38.4 17.067-38.4 38.4V64c0 21.333 17.067 38.4 38.4 38.4h55.467c-8.533 17.067-12.8 38.4-17.067 55.467h-42.667c-21.333 0-38.4 17.067-38.4 38.4v55.467c0 21.333 17.067 38.4 38.4 38.4h46.933c4.267 21.333 12.8 38.4 21.333 55.467-8.533-4.267-4.267 0-64 0-21.333 0-38.4 17.067-38.4 38.4v55.467c0 21.333 17.067 38.4 38.4 38.4h55.467c21.333 0 38.4-17.067 38.4-38.4v-42.667c17.067 21.333 34.133 42.667 55.467 59.733 42.667 34.133 89.6 55.467 145.067 68.267v379.733c0 29.867-25.6 55.467-55.467 55.467H55.466c-29.867 0-55.467-25.6-55.467-55.467V-8.533C-.001-38.4 25.599-64 55.466-64h550.4c-21.333 8.533-38.4 21.333-59.733 38.4 4.267 0 0 0 0 0zm-51.2 584.533c0-21.333-17.067-38.4-38.4-38.4h-55.467c-21.333 0-38.4 17.067-38.4 38.4V614.4c0 21.333 17.067 38.4 38.4 38.4h55.467c21.333 0 38.4-17.067 38.4-38.4v-55.467zm162.134 0c0-21.333-17.067-38.4-38.4-38.4H563.2c-21.333 0-38.4 17.067-38.4 38.4V614.4c0 21.333 17.067 38.4 38.4 38.4h55.467c21.333 0 38.4-17.067 38.4-38.4v-55.467zM38.4 870.4c0 21.333 17.067 38.4 38.4 38.4h550.4c21.333 0 38.4-17.067 38.4-38.4V725.333c0-21.333-17.067-38.4-38.4-38.4H72.533C51.2 686.933 38.4 704 38.4 721.066v149.333zm128-861.867c0-21.333-17.067-38.4-38.4-38.4H72.533c-21.333 0-38.4 17.067-38.4 38.4V64c0 21.333 17.067 38.4 38.4 38.4H128c21.333 0 38.4-17.067 38.4-38.4V8.533zm0 183.467c0-21.333-17.067-38.4-38.4-38.4H72.533c-21.333 0-38.4 17.067-38.4 38.4v55.467c0 21.333 17.067 38.4 38.4 38.4H128c21.333 0 38.4-17.067 38.4-38.4V192zm0 183.467c0-21.333-17.067-38.4-38.4-38.4H72.533c-21.333 0-38.4 17.067-38.4 38.4v55.467c0 21.333 17.067 38.4 38.4 38.4H128c21.333 0 38.4-17.067 38.4-38.4v-55.467zm0 183.466c0-21.333-17.067-38.4-38.4-38.4H72.533c-21.333 0-38.4 17.067-38.4 38.4V614.4c0 21.333 17.067 38.4 38.4 38.4H128c21.333 0 38.4-17.067 38.4-38.4v-55.467zm162.133-550.4c0-21.333-17.067-38.4-38.4-38.4h-51.2c-21.333 0-38.4 17.067-38.4 38.4V64c0 21.333 17.067 38.4 38.4 38.4H294.4c21.333 0 38.4-17.067 38.4-38.4l-4.267-55.467zm0 183.467c0-21.333-17.067-38.4-38.4-38.4h-51.2c-21.333 0-38.4 17.067-38.4 38.4v55.467c0 21.333 17.067 38.4 38.4 38.4H294.4c21.333 0 38.4-17.067 38.4-38.4L328.533 192zm0 183.467c0-21.333-17.067-38.4-38.4-38.4h-51.2c-21.333 0-38.4 17.067-38.4 38.4v55.467c0 21.333 17.067 38.4 38.4 38.4H294.4c21.333 0 38.4-17.067 38.4-38.4l-4.267-55.467zm0 183.466c0-21.333-17.067-38.4-38.4-38.4h-51.2c-21.333 0-38.4 17.067-38.4 38.4V614.4c0 21.333 17.067 38.4 38.4 38.4H294.4c21.333 0 38.4-17.067 38.4-38.4l-4.267-55.467z"/><glyph unicode="" d="M750.933 238.933l162.133 192c-93.867 72.533-226.133 72.533-324.267 4.267l162.133-196.267z"/><glyph unicode="" d="M1024 230.4c-4.267 68.267-34.133 132.267-81.067 179.2l-153.6-179.2H1024z"/><glyph unicode="" d="M366.933 806.4c-4.267 4.267-8.533 4.267-8.533 8.533-4.267 4.267-4.267 8.533-4.267 12.8 0 8.533 4.267 17.067 8.533 21.333s12.8 8.533 25.6 8.533c8.533 0 17.067-4.267 25.6-8.533 4.267-4.267 8.533-12.8 8.533-21.333 0-4.267 0-8.533-4.267-12.8s-8.533-4.267-12.8-8.533c4.267-4.267 12.8-4.267 12.8-12.8 4.267-4.267 4.267-8.533 4.267-12.8 0-8.533-4.267-17.067-8.533-25.6-8.533-8.533-17.067-12.8-25.6-12.8-12.8 0-21.333 4.267-25.6 8.533-8.533 8.533-12.8 17.067-12.8 25.6 0 4.267 0 12.8 4.267 17.067l12.8 12.8zm4.267-25.6c0-4.267 0-8.533 4.267-12.8s8.533-8.533 12.8-8.533c4.267 0 8.533 0 12.8 4.267s4.267 8.533 4.267 12.8c0 4.267 0 8.533-4.267 12.8-4.267 8.533-8.533 8.533-12.8 8.533s-8.533 0-12.8-4.267c-4.267-4.267-4.267-8.533-4.267-12.8zm0 46.933c0-4.267 0-8.533 4.267-8.533s8.533-4.267 12.8-4.267c4.267 0 8.533 0 8.533 4.267s4.267 4.267 4.267 8.533c0 4.267 0 8.533-4.267 8.533-4.267 4.267-4.267 4.267-8.533 4.267s-8.533 0-8.533-4.267c-4.267 0-8.533-4.267-8.533-8.533z"/><glyph unicode="" d="M456.533 806.4c-4.267 4.267-8.533 4.267-12.8 8.533s-4.267 8.533-4.267 12.8 4.267 17.067 8.533 21.333 12.8 8.533 25.6 8.533c8.533 0 17.067-4.267 25.6-8.533 4.267-4.267 8.533-12.8 8.533-21.333 0-4.267 0-8.533-4.267-12.8s-8.533-8.533-12.8-8.533c4.267-4.267 12.8-4.267 12.8-12.8 4.267-4.267 8.533-8.533 8.533-12.8 0-8.533-4.267-17.067-8.533-25.6s-17.067-8.533-25.6-8.533c-8.533 0-17.067 4.267-25.6 8.533s-12.8 17.067-12.8 25.6c0 4.267 0 12.8 4.267 17.067 0 0 4.267 4.267 12.8 8.533zm0-25.6c0-4.267 0-8.533 4.267-12.8s8.533-4.267 12.8-4.267c4.267 0 8.533 0 12.8 4.267s4.267 8.533 4.267 12.8c0 4.267 0 8.533-4.267 12.8s-8.533 4.267-12.8 4.267c-4.267 0-8.533 0-12.8-4.267 0-4.267-4.267-8.533-4.267-12.8zm4.267 46.933c0-4.267 0-8.533 4.267-8.533s4.267-4.267 8.533-4.267c4.267 0 8.533 0 8.533 4.267s4.267 4.267 4.267 8.533c0 4.267 0 8.533-4.267 8.533-4.267 4.267-4.267 4.267-8.533 4.267s-8.533 0-8.533-4.267c-4.267 0-4.267-4.267-4.267-8.533z"/><glyph unicode="" d="M541.867 806.4c-4.267 4.267-8.533 4.267-12.8 8.533s-4.267 8.533-4.267 12.8 4.267 17.067 8.533 21.333 12.8 8.533 25.6 8.533c8.533 0 17.067-4.267 25.6-8.533 4.267-4.267 8.533-12.8 8.533-21.333 0-4.267 0-8.533-4.267-12.8s-8.533-8.533-12.8-8.533c4.267-4.267 12.8-4.267 12.8-12.8 8.533-4.267 8.533-8.533 8.533-12.8 0-8.533-4.267-17.067-8.533-25.6s-17.067-8.533-25.6-8.533c-8.533 0-17.067 4.267-25.6 8.533s-12.8 17.067-12.8 25.6c0 4.267 0 12.8 4.267 17.067 4.267 0 8.533 4.267 12.8 8.533zm4.266-25.6c0-4.267 0-8.533 4.267-12.8s4.267-8.533 12.8-8.533c4.267 0 8.533 0 12.8 4.267s4.267 8.533 4.267 12.8c0 4.267 0 8.533-4.267 12.8s-8.533 4.267-12.8 4.267c-4.267 0-8.533 0-12.8-4.267-4.267 0-4.267-4.267-4.267-8.533zm0 46.933c0-4.267 0-8.533 4.267-8.533s4.267-4.267 8.533-4.267c4.267 0 8.533 0 8.533 4.267 4.267 4.267 4.267 4.267 4.267 8.533s0 8.533-4.267 8.533-4.267 4.267-8.533 4.267-8.533 0-8.533-4.267c0 0-4.267-4.267-4.267-8.533z"/><glyph unicode="" d="M469.333 268.8c8.533 8.533 8.533 21.333 0 29.867s-21.333 8.533-29.867 0-8.533-21.333 0-29.867c12.8-8.533 25.6-8.533 29.867 0z"/><glyph unicode="" d="M998.4 520.533c-34.133 29.867-85.333 25.6-110.933-8.533L768 392.533C755.2 409.6 729.6 422.4 704 422.4H482.133c-29.867 12.8-64 21.333-98.133 21.333-98.133 0-179.2-42.667-226.133-128-17.067 4.267-38.4-4.267-55.467-17.067L8.533 204.799C0 191.999 0 179.199 4.266 170.666L230.399-55.467c8.533-8.533 21.333-8.533 29.867 0L358.399 38.4c17.067 17.067 21.333 42.667 12.8 64l21.333 21.333c12.8 12.8 25.6 17.067 42.667 17.067h264.533c46.933 0 93.867 17.067 123.733 51.2 0 0-8.533-12.8 183.467 217.6 29.867 34.133 25.6 85.333-8.533 110.933zM977.067 435.2l-179.2-213.333c-25.6-25.6-59.733-38.4-98.133-38.4H435.201c-25.6 0-51.2-8.533-68.267-29.867l-17.067-17.067L192 294.4c34.133 64 102.4 102.4 187.733 102.4 29.867 0 59.733-4.267 89.6-17.067H704c21.333 0 38.4-17.067 38.4-38.4s-17.067-38.4-38.4-38.4H541.867c-12.8 0-21.333-8.533-21.333-21.333s8.533-21.333 21.333-21.333H704c42.667 0 81.067 34.133 81.067 81.067v8.533c115.2 119.467 132.267 132.267 132.267 136.533 12.8 17.067 38.4 17.067 55.467 4.267s17.067-38.4 4.267-55.467z"/><glyph unicode="" d="M576 955.733c-119.467 0-217.6-98.133-217.6-217.6s98.133-217.6 217.6-217.6 217.6 98.133 217.6 217.6-98.133 217.6-217.6 217.6zM746.667 652.8l-8.533 8.533c-4.267 4.267-12.8 0-17.067-4.267s0-12.8 4.267-17.067l8.533-4.267c-12.8-21.333-29.867-38.4-51.2-51.2l-4.267 8.533c-4.267 4.267-12.8 8.533-17.067 4.267s-8.533-12.8-4.267-17.067l4.267-8.533C640 558.932 614.4 554.665 588.8 550.399v8.533c0 8.533-4.267 12.8-12.8 12.8s-12.8-4.267-12.8-12.8v-12.8c-25.6 0-51.2 8.533-72.533 21.333l4.267 8.533c4.267 4.267 0 12.8-4.267 17.067s-12.8 0-17.067-4.267l-4.267-8.533c-21.333 12.8-38.4 29.867-51.2 51.2l8.533 8.533c4.267 4.267 8.533 12.8 4.267 17.067s-12.8 8.533-17.067 4.267l-12.8-8.533c-8.533 25.6-17.067 46.933-17.067 72.533h12.8c8.533 0 12.8 4.267 12.8 12.8s-8.533 12.8-12.8 12.8h-12.8c0 25.6 8.533 51.2 21.333 72.533l8.533-4.267c4.267-4.267 12.8 0 17.067 4.267s0 12.8-4.267 17.067l-12.8 8.533c17.067 21.333 34.133 38.4 55.467 51.2l4.267-8.533c4.267-4.267 12.8-8.533 17.067-4.267s8.533 12.8 4.267 17.067l-4.267 8.533c21.333 12.8 46.933 17.067 72.533 21.333v-12.8c0-8.533 4.267-12.8 12.8-12.8s12.8 4.267 12.8 12.8v12.8c25.6 0 51.2-8.533 72.533-21.333l-4.267-8.533c-4.267-4.267 0-12.8 4.267-17.067s12.8 0 17.067 4.267l4.267 8.533c21.333-12.8 38.4-29.867 51.2-51.2l-8.533-8.533c-4.267-4.267-8.533-12.8-4.267-17.067s12.8-8.533 17.067-4.267l8.533 4.267c12.8-21.333 21.333-42.667 21.333-72.533h-12.8c-8.533 0-12.8-4.267-12.8-12.8s4.267-12.8 12.8-12.8h12.8c0-25.6-8.533-51.2-21.333-72.533z"/><glyph unicode="" d="M576 883.2c-76.8 0-140.8-64-140.8-140.8s64-140.8 140.8-140.8 140.8 64 140.8 140.8-64 140.8-140.8 140.8zm55.467-89.6h-51.2c4.267-8.533 4.267-17.067 4.267-25.6 34.133 0 42.667-34.133 25.6-59.733l-12.8 12.8c8.533 4.267 17.067 21.333 8.533 29.867-8.533 12.8-21.333 4.267-29.867 0-4.267-4.267-12.8-17.067-17.067-17.067 0-17.067 25.6-38.4 38.4-51.2l-4.267-4.267c-12.8 12.8-25.6 29.867-38.4 42.667-8.533 8.533-25.6 25.6-17.067 34.133 4.267 8.533 17.067 4.267 25.6 4.267 12.8 8.533 12.8 25.6 0 34.133h-42.667v12.8h110.933v-12.8z"/><glyph unicode="" d="M494.933 558.933c0 29.867 8.533 64 21.333 89.6l-46.933 38.4h-256l140.8-128h140.8z"/><glyph unicode="" d="M145.067 486.4h38.4v-55.467h-38.4V486.4z"/><glyph unicode="" d="M469.333 294.4l25.6 17.067v209.067h-128V209.067H448c-4.267 8.533-8.533 17.067-8.533 29.867 0 21.333 8.533 42.667 29.867 55.467z"/><glyph unicode="" d="M128 320h72.533V209.067H128V320z"/><glyph unicode="" d="M166.4 678.4L0 533.333v-320h89.6v123.733c0 8.533 8.533 17.067 17.067 17.067H217.6c8.533 0 17.067-8.533 17.067-17.067v-128h89.6v324.267L166.4 678.4zm51.2-264.533c0-8.533-8.533-17.067-17.067-17.067H128c-8.533 0-17.067 8.533-17.067 17.067v89.6c0 8.533 8.533 17.067 17.067 17.067h72.533c8.533 0 17.067-8.533 17.067-17.067v-89.6z"/><glyph unicode="" d="M1024 174.933H0C8.533 110.933 64 64 128 64h763.733C960 64 1015.466 110.933 1024 174.933z"/><glyph unicode="" d="M1011.2 264.533l-34.133 21.333c-4.267 4.267-8.533 8.533-8.533 17.067v256c0 89.6-72.533 166.4-166.4 166.4-4.267 0-12.8 4.267-17.067 8.533s-4.267 12.8 0 17.067l42.667 85.333H665.601l42.667-85.333c4.267-4.267 4.267-12.8 0-17.067s-8.533-8.533-17.067-8.533c-89.6 0-166.4-72.533-166.4-166.4v-256c0-4.267-4.267-12.8-8.533-17.067l-34.133-21.333c-8.533-4.267-12.8-12.8-12.8-25.6 0-17.067 12.8-29.867 29.867-29.867h490.667c12.8 0 25.6 8.533 29.867 21.333 8.533 12.8 0 25.6-8.533 34.133zM861.867 593.067H755.2c8.533-17.067 12.8-34.133 8.533-55.467 72.533 0 89.6-68.267 55.467-123.733L789.333 435.2c17.067 12.8 34.133 42.667 21.333 64-17.067 21.333-46.933 8.533-64 0-8.533-12.8-25.6-34.133-38.4-38.4 0-38.4 55.467-85.333 76.8-110.933l-8.533-8.533c-25.6 29.867-55.467 59.733-81.067 89.6-12.8 17.067-51.2 51.2-38.4 76.8 8.533 17.067 34.133 12.8 55.467 12.8 25.6 17.067 25.6 55.467 4.267 72.533h-85.333v25.6h230.4v-25.6z"/><glyph unicode="" d="M704 516.267c0 4.267-4.267 4.267-8.533 8.533-4.267 0-8.533 0-8.533-4.267L576.001 409.6c-8.533 4.267-21.333 12.8-55.467 42.667-29.867 29.867-38.4 46.933-42.667 55.467L588.8 618.667c4.267 4.267 4.267 4.267 4.267 8.533s-4.267 4.267-8.533 8.533c-17.067 4.267-29.867 8.533-46.933 8.533-46.933 0-89.6-17.067-123.733-51.2s-51.2-76.8-51.2-123.733c0-25.6 4.267-46.933 12.8-68.267l-102.4-102.4s-8.533-17.067-12.8-29.867c17.067-38.4 38.4-72.533 72.533-93.867 4.267 4.267 8.533 8.533 17.067 12.8 4.267 4.267 21.333 12.8 17.067 17.067l102.4 102.4c21.333-8.533 42.667-12.8 68.267-12.8 46.933 0 89.6 17.067 123.733 51.2 42.667 42.667 59.733 110.933 42.667 170.667z"/><glyph unicode="" d="M994.133 366.933L934.4 401.066c0 17.067 4.267 29.867 4.267 46.933s0 29.867-4.267 46.933l59.733 34.133c12.8 8.533 21.333 21.333 25.6 34.133s0 29.867-4.267 42.667L895.999 802.132c-8.533 17.067-25.6 29.867-46.933 29.867-8.533 0-21.333-4.267-25.6-8.533l-59.733-34.133c-25.6 17.067-51.2 34.133-76.8 46.933v68.267C682.666 934.4 657.066 960 627.2 960H396.8c-29.867 0-55.467-25.6-55.467-55.467v-68.267c-29.867-12.8-55.467-29.867-81.067-46.933l-59.733 34.133c-8.533 4.267-17.067 8.533-25.6 8.533-21.333 0-38.4-12.8-46.933-29.867L12.8 605.865c-8.533-12.8-12.8-29.867-8.533-42.667s12.8-25.6 25.6-34.133L89.6 494.932c0-17.067-4.267-29.867-4.267-46.933s0-29.867 4.267-46.933l-59.733-34.133C17.067 358.4 8.534 345.6 4.267 332.8s0-29.867 4.267-42.667L128.001 93.866c8.533-17.067 25.6-29.867 46.933-29.867 8.533 0 21.333 4.267 25.6 8.533l59.733 34.133c25.6-17.067 51.2-34.133 76.8-46.933V-8.535c0-12.8 4.267-29.867 17.067-38.4 12.8-12.8 25.6-17.067 42.667-17.067h230.4c29.867 0 55.467 25.6 55.467 55.467v68.267c29.867 12.8 55.467 29.867 76.8 46.933l59.733-34.133c8.533-4.267 17.067-8.533 25.6-8.533 21.333 0 38.4 8.533 46.933 25.6l115.2 200.533c8.533 12.8 25.6 55.467-12.8 76.8zM256 285.867C226.133 332.8 209.067 388.267 209.067 448c0 166.4 136.533 302.933 302.933 302.933S814.933 614.4 814.933 448 678.4 145.067 512 145.067c-59.733 0-115.2 17.067-162.133 46.933S256 285.867 256 285.867z"/><glyph unicode="" d="M512 960C230.4 960 0 729.6 0 448S230.4-64 512-64s512 230.4 512 512-230.4 512-512 512zm311.467-823.467C738.134 51.2 627.2 8.533 512 8.533s-230.4 46.933-311.467 128-128 196.267-128 311.467 46.933 230.4 128 311.467 196.267 128 311.467 128 230.4-46.933 311.467-128 128-196.267 128-311.467-42.667-230.4-128-311.467z"/><glyph unicode="" d="M533.333 418.133c59.733 8.533 110.933 64 110.933 128 0 72.533-59.733 132.267-132.267 132.267s-132.267-59.733-132.267-132.267c0-64 46.933-119.467 110.933-128-102.4-8.533-179.2-98.133-179.2-200.533h405.333c-4.267 106.667-81.067 192-183.467 200.533z"/><glyph unicode="" d="M443.733 827.733c-153.6 0-281.6-128-281.6-281.6 0-81.067 34.133-157.867 89.6-209.067l29.867 17.067c-17.067 12.8-34.133 34.133-42.667 51.2l12.8 12.8C256 422.4 264.533 435.2 256 439.466c-8.533 8.533-17.067 12.8-25.6 8.533l-17.067-12.8C200.533 469.332 192 494.932 192 529.066h17.067c12.8 0 17.067 4.267 17.067 17.067s-12.8 17.067-17.067 17.067H192c0 34.133 12.8 68.267 25.6 93.867l12.8-4.267c4.267-4.267 17.067 0 21.333 4.267s0 17.067-4.267 21.333l-17.067 12.8c21.333 25.6 42.667 51.2 72.533 68.267l4.267-12.8c4.267-4.267 17.067-12.8 21.333-4.267 8.533 4.267 12.8 12.8 8.533 21.333l-4.267 8.533c25.6 17.067 59.733 21.333 93.867 29.867v-17.067c0-12.8 4.267-17.067 17.067-17.067s17.067 4.267 17.067 17.067v17.067c34.133 0 68.267-12.8 93.867-25.6l-4.267-12.8c-4.267-4.267 0-17.067 4.267-21.333s17.067 0 21.333 4.267l4.267 12.8c25.6-17.067 51.2-38.4 68.267-68.267l-12.8-12.8c-4.267-4.267-12.8-17.067-4.267-21.333 4.267-4.267 17.067-12.8 21.333-4.267l12.8 4.267c17.067-25.6 25.6-55.467 25.6-93.867h-17.067c-12.8 0-17.067-4.267-17.067-17.067s4.267-17.067 17.067-17.067h17.067c0-29.867-8.533-55.467-21.333-81.067l-12.8-4.267-4.267 4.267c-4.267 4.267-17.067 0-21.333-4.267v-4.267c0-4.267 4.267-12.8 8.533-17.067h4.267l72.533 42.667c8.533 25.6 12.8 55.467 12.8 89.6-4.267 145.067-132.267 273.067-285.867 273.067z"/><glyph unicode="" d="M443.733 733.867c-102.4 0-183.467-81.067-183.467-183.467 0-68.267 38.4-123.733 89.6-157.867L447.999 448l25.6-55.467 12.8-21.333c29.867 8.533 59.733 25.6 81.067 46.933 34.133 34.133 55.467 81.067 55.467 132.267 0 102.4-81.067 183.467-179.2 183.467zm25.6-209.067c12.8 4.267 21.333 25.6 12.8 38.4-12.8 17.067-25.6 4.267-38.4 0-8.533-4.267-17.067-21.333-25.6-21.333 0-21.333 34.133-51.2 51.2-68.267l-4.267-4.267c-17.067 17.067-34.133 38.4-51.2 55.467-12.8 12.8-34.133 34.133-21.333 42.667 4.267 12.8 21.333 8.533 34.133 8.533 17.067 12.8 17.067 34.133 0 42.667h-55.467v17.067h140.8v-17.067h-68.267c4.267-12.8 4.267-21.333 4.267-34.133 42.667 0 55.467-42.667 34.133-76.8l-12.8 17.067z"/><glyph unicode="" d="M1024 546.133H797.867l29.867-51.2-337.067-192-51.2 110.933L0 162.133l55.467-93.867 337.067 192 55.467-110.933 435.2 251.733 29.867-51.2 110.933 196.267z"/><glyph unicode="" glyph-name="attach" d="M281.6-64c-68.267 0-132.267 25.6-183.467 76.8s-76.8 110.933-76.8 179.2 25.6 132.267 76.8 183.467L627.2 904.534c76.8 76.8 192 72.533 273.067-8.533S985.6 695.468 908.8 622.934l-494.933-499.2c-46.933-46.933-123.733-46.933-170.667 0s-46.933 123.733 0 170.667l337.067 337.067c12.8 12.8 29.867 12.8 42.667 0s12.8-29.867 0-42.667L285.867 251.734c-25.6-25.6-25.6-64 0-89.6s64-25.6 89.6 0L870.4 665.601c51.2 51.2 46.933 136.533-8.533 192s-140.8 59.733-192 8.533L140.8 332.801c-38.4-38.4-59.733-85.333-59.733-140.8 0-51.2 21.333-102.4 59.733-140.8S226.133-8.532 281.6-8.532c51.2 0 102.4 21.333 140.8 59.733l529.067 533.333c12.8 12.8 29.867 12.8 42.667 0s12.8-29.867 0-42.667L460.801 12.8C413.868-38.4 349.868-64 281.601-64z"/></font>
</defs>
</svg>
